<svg width="247" height="32" viewBox="0 0 247 32" fill="none" xmlns="http://www.w3.org/2000/svg">
<g clip-path="url(#clip0_163_3954)">
<path d="M56.72 21.53C54.95 25.62 52.04 28.58 47.79 30.16C45.66 30.96 43.46 31.08 41.24 31.17C39.4 31.25 37.5599 31.2 35.7099 31.19C34.68 31.19 34.51 30.97 34.7 29.98C35.07 28.15 35.47 26.32 35.81 24.48C35.94 23.78 36.27 23.5 37 23.51C38.99 23.53 40.9799 23.58 42.9599 23.45C47.38 23.16 51.0499 19.69 51.6899 15.32C52.3499 10.8 49.2099 6.78998 44.6199 6.53998C41.6399 6.37998 38.6499 6.50998 35.6699 6.50998V6.45998C32.8299 6.45998 29.99 6.45998 27.16 6.45998C26.84 6.45998 26.5 6.44998 26.2 6.53998C25.57 6.71998 25.38 7.27998 25.84 7.74998C27.28 9.19998 28.75 10.63 30.25 12.02C30.51 12.26 31 12.31 31.3899 12.31C34.9899 12.33 38.59 12.31 42.18 12.32C43.7799 12.32 44.8899 13.22 45 14.6C45.1199 16.06 44.0599 17.39 42.5299 17.61C42.07 17.68 41.6 17.67 41.13 17.67C38.12 17.67 35.11 17.67 32.09 17.67C31.0633 17.67 30.45 18.16 30.25 19.14C29.6 22.23 28.96 25.32 28.29 28.4C28.03 29.6 27.69 29.72 26.84 28.89C23.63 25.74 20.4499 22.56 17.2299 19.41C12.2899 14.55 7.30995 9.69998 2.32995 4.83998C1.71995 4.24998 1.12995 3.63998 0.53995 3.02998C0.09995 2.55998 -0.16005 2.01998 0.10995 1.35998C0.37995 0.729982 0.90995 0.559982 1.53995 0.559982C1.97995 0.559982 2.41995 0.559982 2.85995 0.559982C16.3399 0.529982 29.83 0.489982 43.31 0.459982C49.6 0.449982 54.75 4.07998 56.84 9.98998C58.2099 13.85 58.37 17.73 56.72 21.53Z" fill="white"/>
<path d="M94.7699 13.83C93.8899 6.41004 87.4199 0.720036 79.7399 0.390036C76.1799 0.240036 72.6099 0.390036 69.0399 0.350036C68.2399 0.340036 68.0699 0.600036 68.0699 1.35004C68.0999 5.94004 68.0899 10.53 68.0899 15.12H68.2799C68.2799 20.14 68.2899 25.17 68.2699 30.19C68.2699 30.89 68.5499 31 69.1699 31C72.2699 30.97 75.3699 31.03 78.4699 30.98C83.1399 30.9 87.2699 29.48 90.5799 25.99C93.8299 22.55 95.3399 18.53 94.7799 13.84L94.7699 13.83ZM89.8599 16.63C89.4799 21.02 86.25 24.8 81.9799 25.94C79.2699 26.66 76.5199 26.39 73.7799 26.46C73.1999 26.47 73.2299 26.06 73.2299 25.68C73.1999 23.66 73.1399 21.65 73.1299 19.63C73.1199 15.07 73.1499 10.5 73.1099 5.94004C73.0999 5.03004 73.3799 4.76004 74.2599 4.83004C75.0999 4.90004 75.9499 4.85004 76.7999 4.85004C79.1899 4.75004 81.5199 4.89004 83.7399 5.93004C87.8099 7.84004 90.2599 12.06 89.8599 16.64V16.63Z" fill="white"/>
<path d="M188.28 7.68999C187.18 3.15999 183.27 0.0599902 178.51 0.00999023C174.5 -0.0300098 170.49 0.0299902 166.49 -0.0100098C165.69 -0.0100098 165.51 0.26999 165.53 1.00999C165.6 3.69999 165.63 6.38999 165.63 9.07999C165.64 15.9 165.63 22.71 165.63 29.53C165.63 29.74 165.56 29.98 165.65 30.14C165.77 30.36 166.01 30.68 166.2 30.68C167.63 30.73 169.05 30.7 170.57 30.7C170.59 30.33 170.61 30.16 170.61 29.99C170.61 26.86 170.63 23.73 170.58 20.6C170.57 19.79 170.86 19.63 171.59 19.64C173.67 19.68 175.75 19.7 177.82 19.64C178.92 19.61 180.04 19.5 181.12 19.26C186.21 18.1 189.5 12.74 188.28 7.68999ZM182.07 13.47C180.99 14.66 179.57 15.17 177.99 15.19C175.77 15.22 173.55 15.19 171.33 15.21C170.74 15.21 170.58 15 170.59 14.44C170.59 14.13 170.59 13.82 170.6 13.51C170.6 13.25 170.6 12.99 170.6 12.72C170.6 11.97 170.6 11.23 170.6 10.48C170.6 10.25 170.6 10.02 170.6 9.78999C170.6 9.34999 170.6 8.90999 170.6 8.45999C170.6 7.34999 170.6 6.24999 170.6 5.13999C170.6 4.60999 170.77 4.42999 171.31 4.42999C173.59 4.45999 175.87 4.37999 178.14 4.46999C180.45 4.55999 182.24 5.62999 183.13 7.84999C183.95 9.89999 183.58 11.82 182.08 13.45L182.07 13.47Z" fill="white"/>
<path d="M159.04 30.04C159.04 30.62 158.8 30.7199 158.31 30.7199C157.35 30.6999 156.38 30.67 155.42 30.7199C154.71 30.76 154.52 30.5 154.53 29.82C154.56 26.2799 154.58 22.74 154.52 19.2099C154.5 18.1799 154.39 17.07 153.98 16.15C153 13.9399 150.82 13.02 148.45 13.59C145.8 14.23 144.1 16.13 144.03 18.87C143.93 22.49 143.98 26.1199 144.03 29.74C144.03 30.52 143.83 30.7699 143.06 30.7199C141.96 30.66 140.85 30.7 139.57 30.7C139.53 30.06 139.46 29.3899 139.46 28.7299C139.46 20.2799 139.46 11.83 139.45 3.37995C139.45 2.50995 139.39 1.62995 139.35 0.759951C139.33 0.269951 139.56 0.0799506 140.03 0.0899506C141.08 0.0999506 142.14 0.129951 143.19 0.0799506C143.93 0.0499506 143.97 0.449951 143.97 1.00995C143.96 4.60995 143.97 8.19995 143.97 11.8C143.97 11.94 143.99 12.08 144.01 12.38C144.45 11.98 144.79 11.65 145.14 11.34C147.85 8.98995 150.95 8.62995 154.15 9.95995C157.3 11.27 158.82 13.9399 158.96 17.2299C159.14 21.49 159.03 25.76 159.07 30.03L159.04 30.04Z" fill="white"/>
<path d="M208.32 17.5301C208.3 14.0701 206.87 11.42 203.65 9.95005C201.51 8.97005 199.23 8.87005 196.95 9.34005C194.78 9.80005 192.9 10.85 191.39 12.48C191.22 12.67 191.1 13.1801 191.21 13.3101C192.01 14.2301 192.87 15.0901 193.71 15.9701C195.83 13.9401 197.21 13.2201 199.13 13.0901C201.2 12.9501 202.98 14.0401 203.56 15.8101C203.86 16.7201 203.78 16.89 202.86 17.05C201.74 17.25 200.61 17.4001 199.49 17.63C197.53 18.05 195.48 18.2801 193.64 19.0201C189.85 20.5501 188.66 25.2 191.05 28.38C192.57 30.41 196.04 31.48 198.77 30.81C200.67 30.34 202.28 29.44 203.59 27.96C203.66 27.98 203.74 28.01 203.81 28.0301C203.81 28.6 203.84 29.17 203.81 29.74C203.77 30.3 203.99 30.5301 204.56 30.5201C205.52 30.49 206.49 30.48 207.45 30.5201C208.15 30.5501 208.35 30.3001 208.35 29.6101C208.32 25.57 208.35 21.5401 208.33 17.5001L208.32 17.5301ZM200.93 26.21C199.91 26.78 198.89 27.27 197.65 27.21C196.58 27.16 195.74 26.72 195.04 25.98C194.04 24.93 194.19 23.43 195.35 22.55C195.67 22.3101 196.03 22.0301 196.41 21.9501C198.81 21.4201 201.23 20.9401 203.64 20.4401C204.06 22.6001 202.8 25.17 200.93 26.21Z" fill="white"/>
<path d="M115.55 17.7399C115.53 15.8699 115.11 14.0899 113.9 12.5799C112.02 10.2499 109.47 9.4099 106.61 9.3999C103.59 9.3999 100.95 10.4699 98.7799 12.5899C98.5299 12.8299 98.2999 13.4999 98.4299 13.6399C99.2399 14.5399 100.15 15.3499 101.06 16.2199C101.3 15.9999 101.49 15.8299 101.67 15.6499C103.16 14.1399 104.93 13.3199 107.08 13.4099C108.83 13.4799 110.37 14.6199 110.85 16.1899C111.05 16.8499 111.01 17.2799 110.13 17.3599C109 17.4699 107.87 17.6999 106.76 17.9299C104.82 18.3399 102.82 18.5899 100.98 19.2799C96.6399 20.9199 95.7099 26.6399 99.1999 29.5999C101.86 31.8699 106.5 31.8399 109.47 29.5299C109.96 29.1499 110.42 28.7199 111.06 28.1699C111.06 28.9799 111.08 29.5399 111.06 30.0899C111.03 30.6899 111.26 30.9399 111.87 30.9099C112.83 30.8499 113.8 30.7899 114.76 30.8099C115.44 30.8299 115.59 30.5399 115.59 29.9299C115.57 25.8699 115.61 21.7999 115.57 17.7399H115.55ZM104.12 27.3999C102.9 27.1799 101.72 26.0199 101.62 24.9199C101.52 23.8699 102.27 22.7599 103.57 22.3199C104.61 21.9699 105.71 21.7599 106.79 21.5399C108.16 21.2699 109.54 21.0599 110.97 20.8199C111.22 24.8999 107.84 28.0699 104.12 27.4099V27.3999Z" fill="white"/>
<path d="M246.18 26.61C245.44 28.55 243.89 29.72 241.97 30.28C237.65 31.54 233.79 30.7 230.49 27.54C229.99 27.06 229.96 26.73 230.49 26.26C231.31 25.53 232.08 24.74 232.9 23.94C234.27 25.3 235.72 26.34 237.59 26.65C238.92 26.86 240.17 26.69 241.24 25.85C242.6 24.79 242.45 23.27 240.87 22.61C239.5 22.04 238.05 21.65 236.64 21.18C234.74 20.54 232.88 19.85 231.7 18.08C230.38 16.09 230.66 13.08 232.3 11.34C233.68 9.88996 235.43 9.20996 237.37 9.01996C240.25 8.72996 242.96 9.25996 245.37 10.95C246.31 11.61 246.31 11.71 245.52 12.51C245.5 12.53 245.48 12.55 245.46 12.57C244.84 13.19 244.3 14.13 243.57 14.33C242.95 14.5 242.11 13.78 241.36 13.48C239.97 12.91 238.54 12.7 237.08 13.18C236.24 13.46 235.54 13.93 235.42 14.91C235.33 15.67 235.85 16.38 236.89 16.76C238.86 17.48 240.9 18.03 242.84 18.83C246.3 20.25 247.51 23.12 246.18 26.6V26.61Z" fill="white"/>
<path d="M132.11 30.0999C128.07 32.2299 122.36 31.2299 119.25 27.8799C118.89 27.4899 118.87 27.2199 119.23 26.8499C119.95 26.1199 120.62 25.3599 121.37 24.6599C121.5 24.5399 121.95 24.5899 122.15 24.7199C123.23 25.3999 124.21 26.2799 125.35 26.8199C126.88 27.5499 128.98 27.4699 130.37 25.9699C131.27 24.9999 131.23 23.8999 130.1 23.2499C129.18 22.7199 128.12 22.4199 127.11 22.0499C125.8 21.5699 124.43 21.1999 123.15 20.6399C118.56 18.6399 118.76 12.9299 122.43 10.6099C125.83 8.45988 132.23 9.11988 134.92 12.0099C134.02 13.0399 133.16 14.0199 132.46 14.8199C130.94 14.2799 129.67 13.6799 128.33 13.4199C127.47 13.2499 126.48 13.4799 125.59 13.6999C124.82 13.8899 124.29 14.4999 124.23 15.3499C124.18 16.1699 124.69 16.6899 125.38 16.9399C127.1 17.5799 128.86 18.1299 130.59 18.7499C132.15 19.3099 133.63 19.9999 134.61 21.4199C136.55 24.2499 135.35 28.3899 132.11 30.0899V30.0999Z" fill="white"/>
<path d="M228.28 24.3C228.21 26.91 226.97 28.87 224.59 29.89C223.17 30.5 221.59 30.74 220.08 31.15L220.01 30.92C216.93 30.85 214.25 29.82 212.06 27.59C211.56 27.08 211.61 26.72 212.09 26.29C212.74 25.7 213.39 25.11 213.99 24.47C214.38 24.05 214.65 24.14 214.99 24.5C216.25 25.81 217.84 26.55 219.6 26.85C220.98 27.08 222.23 26.57 223.17 25.59C224.11 24.61 223.92 23.45 222.69 22.84C221.55 22.27 220.28 21.97 219.08 21.52C217.85 21.06 216.59 20.66 215.43 20.07C213.4 19.04 212.36 17.32 212.44 15.02C212.52 12.58 213.79 10.83 215.97 9.91996C219.84 8.30996 223.56 8.78996 227.05 11.12C227.71 11.56 227.86 11.94 227.17 12.52C226.54 13.04 225.99 13.65 225.43 14.24C225.09 14.59 224.82 14.65 224.38 14.34C222.81 13.23 221.05 12.78 219.15 13.14C218.65 13.23 218.14 13.47 217.73 13.76C216.7 14.49 216.66 15.71 217.73 16.36C218.64 16.91 219.69 17.23 220.69 17.61C222.16 18.17 223.7 18.58 225.12 19.25C227.18 20.24 228.33 21.94 228.26 24.3H228.28Z" fill="white"/>
</g>
<defs>
<clipPath id="clip0_163_3954">
<rect width="246.71" height="31.29" fill="white"/>
</clipPath>
</defs>
</svg>
