<svg width="41" height="22" viewBox="0 0 41 22" fill="none" xmlns="http://www.w3.org/2000/svg">
<path d="M40.1549 15.0756C38.8969 17.9979 36.84 20.1189 33.8292 21.2517C32.3208 21.8241 30.7587 21.9084 29.1967 21.9687C27.897 22.0229 26.5853 21.9928 25.2856 21.9807C24.5583 21.9807 24.4331 21.818 24.5702 21.1191C24.8266 19.8056 25.1127 18.498 25.3572 17.1845C25.4526 16.6844 25.6851 16.4856 26.1978 16.4916C27.6049 16.5097 29.0178 16.5398 30.4189 16.4434C33.549 16.2325 36.1484 13.7561 36.6015 10.6289C37.0725 7.39322 34.8487 4.52512 31.5994 4.34436C29.4948 4.22988 27.3783 4.32026 25.2677 4.32026V4.28411C23.2586 4.28411 21.2494 4.28411 19.2402 4.28411C19.0136 4.28411 18.7751 4.27808 18.5605 4.33834C18.1133 4.4709 17.9762 4.86857 18.3041 5.19997C19.3236 6.23634 20.361 7.26066 21.4282 8.25485C21.6071 8.42356 21.9648 8.45972 22.239 8.46574C24.7848 8.47779 27.3306 8.47177 29.8823 8.47779C31.0151 8.47779 31.7961 9.12251 31.8796 10.1047C31.969 11.1531 31.2119 12.0991 30.1327 12.2557C29.8048 12.3039 29.471 12.3039 29.143 12.3039C27.0087 12.3039 24.8802 12.3039 22.7458 12.3039C22.0185 12.3039 21.5832 12.6554 21.4401 13.3584C20.9811 15.5697 20.522 17.781 20.057 19.9863C19.8721 20.848 19.6337 20.9323 19.0315 20.3358C16.76 18.0823 14.5063 15.8107 12.2289 13.5572C8.70531 10.0806 5.17581 6.60992 1.65227 3.13325C1.223 2.71148 0.799699 2.27765 0.388321 1.83779C0.0663735 1.50037 -0.112486 1.11474 0.0782975 0.644761C0.269082 0.192855 0.65065 0.0663212 1.09184 0.0723466C1.40186 0.0723466 1.71189 0.0723466 2.02191 0.0723466C11.573 0.0482449 21.1182 0.0241433 30.6634 4.16624e-05C35.117 -0.0120092 38.7598 2.59097 40.2443 6.82081C41.2101 9.58647 41.3234 12.3582 40.1549 15.0756Z" fill="white"/>
</svg>
