<svg width="32" height="33" viewBox="0 0 32 33" fill="none" xmlns="http://www.w3.org/2000/svg">
<path d="M8.91365 18.3895C8.92732 19.5459 8.941 20.6955 8.96151 21.852C8.97519 22.5705 9.00254 23.289 9.02989 24.0075C9.05041 24.5959 9.10511 25.1776 9.41282 25.7045C9.65898 26.1219 9.95985 26.4846 10.3701 26.7309C10.63 26.8883 10.7394 27.1141 10.7531 27.4015C10.7736 27.8258 10.7941 28.25 10.8214 28.6743C10.883 29.7075 10.9514 30.7408 11.0129 31.7672C11.0266 32.0341 11.0402 32.301 11.0539 32.5678C11.0608 32.821 10.9582 32.9237 10.7052 32.9305C9.9325 32.9305 9.15981 32.9305 8.38713 32.9442C7.64863 32.9579 6.91013 32.9647 6.17163 32.9989C5.74768 33.0195 5.27586 32.7389 5.19381 32.1778C5.0844 31.4183 4.96132 30.6655 4.87243 29.906C4.76986 28.9959 4.6878 28.0789 4.60575 27.162C4.51685 26.1082 4.44164 25.0476 4.37326 23.9938C4.30488 22.9331 4.2365 21.8657 4.17496 20.7982C4.13393 20.0728 4.09974 19.3406 4.05187 18.6153C4.02452 18.1705 3.751 17.8421 3.31338 17.7531C2.71164 17.6299 2.1099 17.5204 1.50132 17.4041C1.24148 17.3562 0.9748 17.3083 0.714958 17.2536C0.106382 17.1236 -0.173974 16.4803 0.113219 15.9534C0.564524 15.1186 1.05002 14.2975 1.5697 13.4969C2.87575 11.4851 4.3459 9.59644 5.95282 7.8173C7.37511 6.22977 8.89997 4.75171 10.5411 3.38999C11.8813 2.28145 13.2763 1.25502 14.7669 0.35861C15.5806 -0.134074 16.4285 -0.113545 17.2354 0.385982C19.1432 1.56295 20.9211 2.91099 22.5895 4.40957C22.61 4.4301 22.6306 4.45063 22.6511 4.46431C22.6853 4.48484 22.7263 4.49853 22.7673 4.51221C22.7878 4.47116 22.8152 4.4301 22.8152 4.3822C22.8152 4.13586 22.8357 3.88951 22.8152 3.65002C22.7742 3.1847 23.1297 2.92467 23.5947 2.99995C24.2443 3.10943 24.9008 3.16417 25.5504 3.24629C25.7418 3.26682 25.9401 3.28735 26.1316 3.32156C26.5624 3.39683 26.8427 3.69107 26.9179 4.12901C27.0479 4.9091 27.1915 5.68234 27.3077 6.46242C27.4103 7.15355 27.4923 7.85152 27.5744 8.54949C27.6154 8.91216 27.6291 9.27483 27.6838 9.6375C27.7043 9.76067 27.7795 9.89068 27.8616 9.99333C28.7574 11.1156 29.6189 12.272 30.3985 13.4763C30.8976 14.2427 31.3694 15.0228 31.8413 15.8097C32.2174 16.4256 31.896 17.0962 31.1848 17.233C30.3916 17.3836 29.5916 17.5341 28.7984 17.6847C28.2582 17.7873 27.9778 18.1089 27.9436 18.6564C27.9026 19.3475 27.8753 20.0386 27.8342 20.7297C27.7864 21.5167 27.7317 22.3036 27.6838 23.0905C27.6564 23.5216 27.6359 23.9596 27.6086 24.3907C27.5539 25.1639 27.4992 25.9303 27.4376 26.7035C27.3898 27.3194 27.3419 27.9284 27.2804 28.5374C27.2325 29.0164 27.1846 29.4886 27.1231 29.9607C27.041 30.6108 26.9453 31.2609 26.8564 31.9109C26.8359 32.0615 26.8017 32.212 26.747 32.3557C26.6034 32.7321 26.2889 32.9442 25.8923 32.9374C24.8871 32.9237 23.8819 32.8963 22.8767 32.8758C22.7058 32.8758 22.6374 32.7868 22.6511 32.6294C22.6921 31.9794 22.7331 31.3293 22.7673 30.6724C22.822 29.7349 22.8699 28.8043 22.9177 27.8668C22.9588 27.0525 22.993 26.2382 23.0272 25.4171C23.0682 24.3085 23.0955 23.2 23.1297 22.0915C23.1571 21.2019 23.1776 20.3055 23.1913 19.4159C23.2049 18.369 23.2186 17.3288 23.2118 16.2819C23.2118 15.5155 23.1844 14.7491 23.1502 13.9827C23.1229 13.3805 23.075 12.7784 23.0272 12.1762C22.9998 11.7998 22.5827 11.5398 22.2545 11.7246C22.0562 11.834 21.8784 12.0051 21.7348 12.183C20.9826 13.141 20.4219 14.2085 19.9774 15.3376C19.6219 16.2408 19.3005 17.1646 19.0133 18.0884C18.7876 18.8206 18.603 19.5665 18.4594 20.3192C18.2474 21.414 18.0697 22.5226 17.9124 23.6311C17.803 24.4043 17.7551 25.1844 17.6799 25.9645C17.6662 26.1082 17.6525 26.2451 17.6457 26.3888C17.632 26.7925 17.8508 27.0457 18.2474 27.1073C18.8355 27.2031 19.4304 27.2989 20.0185 27.4015C20.2715 27.4426 20.3467 27.5589 20.3262 27.8121C20.2783 28.3732 20.2441 28.9411 20.2031 29.5023C20.1552 30.0497 20.1074 30.5971 20.0527 31.1445C20.0048 31.6304 19.9569 32.1162 19.9091 32.6021C19.8885 32.8347 19.7791 32.9442 19.5466 32.9442C17.7688 32.9442 15.9841 32.9442 14.2062 32.9374C13.8848 32.9374 13.7891 32.8552 13.7617 32.5336C13.666 31.4867 13.5566 30.4329 13.4746 29.3859C13.4199 28.6948 13.4062 27.9968 13.372 27.2989C13.3583 27.0183 13.4609 26.8199 13.6865 26.6488C14.4661 26.0603 14.8763 25.2665 14.8627 24.288C14.849 23.0221 14.7874 21.763 14.7669 20.5039C14.7464 19.3338 14.7327 18.1637 14.7464 16.9935C14.7601 15.8508 14.808 14.708 14.8353 13.5653C14.8353 13.449 14.8627 13.3258 14.8627 13.2095C14.8627 12.881 14.6233 12.6073 14.3088 12.6004C14.0148 12.5936 13.7549 12.8468 13.7344 13.1752C13.7139 13.5242 13.6865 13.8732 13.6797 14.2154C13.6592 14.8928 13.6387 15.5634 13.6318 16.2408C13.6182 17.2194 13.6182 18.1979 13.6182 19.1833C13.6182 19.6691 13.6387 20.1549 13.6387 20.6339C13.6387 20.9624 13.413 21.2087 13.0985 21.2498C12.8181 21.284 12.5309 21.0856 12.4489 20.7913C12.4284 20.7297 12.4283 20.6613 12.4283 20.5997C12.4283 18.8548 12.4215 17.1167 12.4283 15.3718C12.4283 14.667 12.4899 13.969 12.5172 13.271C12.5309 12.9084 12.2984 12.6347 11.9702 12.6278C11.6557 12.621 11.4095 12.881 11.389 13.23C11.2591 15.625 11.2796 18.02 11.2933 20.415C11.2933 20.4971 11.2933 20.5792 11.2933 20.6613C11.3206 21.0103 11.0334 21.284 10.7052 21.2909C10.3565 21.2909 10.0693 21.024 10.0693 20.6613C10.0693 19.5254 10.0624 18.3963 10.0624 17.2604C10.0624 16.8225 10.0624 16.3914 10.0693 15.9534C10.0966 15.057 10.1308 14.1606 10.1718 13.2642C10.1855 12.9221 9.95985 12.6483 9.63163 12.6278C9.32393 12.6141 9.07092 12.8673 9.05725 13.2095C8.9957 14.9475 8.941 16.6788 8.87946 18.4169C8.89313 18.4169 8.90681 18.4169 8.91365 18.4169V18.3895Z" fill="white"/>
</svg>
