<svg width="174" height="34" viewBox="0 0 174 34" fill="none" xmlns="http://www.w3.org/2000/svg">
<g clip-path="url(#clip0_163_3966)">
<path d="M173.7 21.9899C173.23 19.6299 172.01 17.7899 169.97 16.4699C170.63 15.8499 171.28 15.3799 171.74 14.7799C173.8 12.0899 173.69 9.0899 172.83 6.0399C172.31 4.1899 171.09 2.8599 169.42 1.9299C167.56 0.899902 165.55 0.469902 163.46 0.449902C159.86 0.399902 156.26 0.409902 152.66 0.399902C151.44 0.399902 151.4 0.439902 151.4 1.6599C151.4 9.3999 151.4 17.1399 151.4 24.8699C151.4 27.3899 151.43 29.9099 151.38 32.4299C151.36 33.3199 151.69 33.6099 152.54 33.5599C153.44 33.4999 154.34 33.5599 155.24 33.5499C158.6 33.5099 161.97 33.6499 165.31 33.3699C171.43 32.8499 174.89 27.9999 173.71 21.9899H173.7ZM159.32 7.0799C160.74 7.1499 162.12 7.0799 163.46 7.3199C164.97 7.5799 165.74 8.8799 165.67 10.5699C165.59 12.2399 164.77 13.3099 163.18 13.4799C161.94 13.6099 160.68 13.5099 159.33 13.5099V7.0799H159.32ZM165.51 25.2699C164.85 26.5199 163.65 26.7699 162.36 26.7499C161.37 26.7399 160.39 26.7499 159.27 26.7499V19.7699C160.78 19.7699 162.21 19.6199 163.58 19.8299C164.27 19.9299 165.07 20.5399 165.46 21.1599C166.3 22.4499 166.23 23.9199 165.51 25.2699Z" fill="white"/>
<path d="M94.3 16.3999C94.72 16.0599 95.1 15.7699 95.47 15.4699C98.4 12.9699 98.24 7.4399 96.6 4.7799C95.98 3.7699 95.06 2.8599 94.08 2.1699C92.21 0.859903 90 0.479902 87.75 0.449902C84.15 0.399902 80.55 0.409902 76.95 0.399902C75.76 0.399902 75.7 0.469902 75.7 1.6999C75.7 6.9499 75.7 12.1999 75.7 17.4499V32.1199C75.7 33.5399 75.72 33.5599 77.18 33.5599C80.51 33.5599 83.84 33.5599 87.17 33.5599C88.01 33.5599 88.86 33.5399 89.68 33.4099C92.86 32.9199 95.66 31.7399 97.26 28.7299C99.44 24.6199 98.24 19.6299 94.31 16.4099L94.3 16.3999ZM83.64 7.6699C83.64 7.4899 83.97 7.1699 84.16 7.1699C85.18 7.1299 86.21 7.0899 87.22 7.1899C89.05 7.3599 90.05 8.6099 90.01 10.5199C89.96 12.3599 88.99 13.4499 87.15 13.5599C86.02 13.6299 84.89 13.5699 83.63 13.5699C83.63 11.4999 83.62 9.5899 83.65 7.6699H83.64ZM90.23 24.3799C89.87 25.7599 88.98 26.5899 87.58 26.7099C86.31 26.8199 85.02 26.7299 83.64 26.7299V19.6299C85.27 19.7299 86.9 19.6499 88.45 19.9799C89.97 20.2999 90.72 22.4799 90.23 24.3899V24.3799Z" fill="white"/>
<path d="M47.9 32.16C46.33 28.11 44.76 24.05 43.2 20C43.12 19.79 43.08 19.56 43.07 19.54C44.09 18.62 45.12 17.9 45.87 16.97C47.83 14.56 48.19 11.71 47.78 8.72001C47.15 4.10001 43.59 0.630013 39.05 0.480013C34.76 0.340013 30.47 0.430013 26.18 0.400013C25.52 0.400013 25.28 0.690013 25.28 1.33001C25.28 11.75 25.29 22.16 25.28 32.58C25.28 33.34 25.62 33.57 26.32 33.56C27.82 33.53 29.32 33.56 30.82 33.56C33.54 33.54 33.17 33.86 33.18 31.23C33.19 27.66 33.18 24.09 33.18 20.49C35.25 20.08 35.41 20.19 36.03 21.97C37.29 25.56 38.58 29.14 39.83 32.74C40.04 33.35 40.36 33.59 41.01 33.58C42.99 33.55 44.97 33.57 46.95 33.57C48.29 33.57 48.37 33.45 47.88 32.18L47.9 32.16ZM40.05 11.21C39.93 12.88 38.88 14.11 37.29 14.25C35.99 14.36 34.67 14.27 33.24 14.27V7.08001C34.77 7.15001 36.31 7.05001 37.78 7.33001C39.41 7.63001 40.21 9.21001 40.05 11.21Z" fill="white"/>
<path d="M122.96 32.5101C122.96 33.2801 122.68 33.5801 121.9 33.5601C119.98 33.5201 118.06 33.5201 116.14 33.5601C115.3 33.5801 115.05 33.2601 115.05 32.4501C115.08 28.7601 115.06 25.0701 115.06 21.3801C115.06 21.0301 115.03 20.6701 115.01 20.2501C112.95 20.2501 110.98 20.2501 109 20.2501C108.36 20.2501 108.49 20.7101 108.49 21.0801C108.49 24.7701 108.49 28.4601 108.49 32.1501C108.49 32.3601 108.49 32.5701 108.49 32.7801C108.52 33.3101 108.26 33.5501 107.74 33.5501C105.64 33.5501 103.54 33.5501 101.44 33.5501C100.78 33.5501 100.64 33.1901 100.64 32.6301C100.66 31.2501 100.64 29.8701 100.64 28.4901V1.7601C100.64 0.860103 101.09 0.410103 101.99 0.410103C103.73 0.410103 105.47 0.410103 107.21 0.410103C108.47 0.410103 108.48 0.420103 108.48 1.6501C108.48 5.3101 108.49 8.9701 108.47 12.6301C108.47 13.2901 108.63 13.5401 109.32 13.5201C110.91 13.4701 112.5 13.4701 114.09 13.5201C114.83 13.5401 115.07 13.3201 115.06 12.5601C115.03 8.9301 115.04 5.3001 115.05 1.6701C115.05 0.460103 115.09 0.410103 116.32 0.410103C118.15 0.410103 119.98 0.440103 121.81 0.400103C122.6 0.380103 122.94 0.610103 122.94 1.4601C122.92 11.8101 122.92 22.1601 122.94 32.5201L122.96 32.5101Z" fill="white"/>
<path d="M22.5901 24.05C22.3501 29.34 18.8401 33.06 13.5801 33.76C10.4401 34.18 7.40006 33.89 4.65006 32.16C1.81006 30.37 0.290059 27.71 0.0800586 24.41C-0.0799414 21.9 0.0500586 19.37 0.0500586 16.85H5.85937e-05C5.85937e-05 14.72 -0.00994141 12.58 0.0100586 10.45C0.0800586 4.81998 3.90006 0.659981 9.51006 0.0999812C12.8001 -0.230019 15.9301 0.219981 18.6801 2.19998C21.7001 4.37998 22.8401 7.43998 22.5901 11.07C22.5701 11.31 22.1101 11.72 21.8501 11.73C19.7501 11.78 17.6501 11.76 15.5501 11.76C15.0401 11.76 14.7601 11.52 14.7501 11C14.7501 10.73 14.7501 10.46 14.7401 10.19C14.6701 8.07998 13.3801 6.78998 11.3601 6.77998C9.40006 6.77998 7.96006 8.13998 7.94006 10.19C7.90006 14.69 7.91006 19.2 7.94006 23.7C7.94006 25.16 8.68006 26.25 9.98006 26.84C11.2201 27.4 12.5001 27.34 13.6501 26.49C14.4001 25.94 14.7501 25.15 14.8201 24.25C14.8701 23.5 14.8201 22.75 14.8501 22C14.8701 21.53 14.6701 21.36 14.2101 21.37C13.4601 21.39 12.7101 21.35 11.9601 21.38C11.3201 21.41 11.0201 21.18 11.0301 20.5C11.0601 19 11.0601 17.5 11.0301 16C11.0201 15.33 11.3101 15.1 11.9501 15.1C15.2201 15.11 18.4901 15.11 21.7701 15.1C22.3701 15.1 22.6501 15.32 22.6401 15.94C22.6201 18.64 22.7201 21.35 22.6001 24.04L22.5901 24.05Z" fill="white"/>
<path d="M148.38 23.35C148.34 29.49 143.97 33.79 137.74 33.93C134.42 34.01 131.35 33.3 128.89 30.88C126.81 28.83 125.9 26.29 125.89 23.4C125.88 19.86 125.89 16.32 125.89 12.78C125.89 9.03 125.91 5.27 125.87 1.52C125.87 0.640001 126.17 0.370001 127.02 0.390001C128.85 0.440001 130.68 0.400001 132.51 0.400001C133.72 0.400001 133.74 0.430001 133.74 1.69C133.74 8.71 133.74 15.74 133.74 22.76C133.74 23.84 133.77 24.92 134.47 25.85C135.35 27.01 136.55 27.35 137.91 27.07C139.25 26.8 140.02 25.87 140.33 24.57C140.45 24.08 140.45 23.56 140.45 23.05C140.45 15.94 140.45 8.82 140.45 1.71C140.45 0.440001 140.49 0.400001 141.76 0.390001C143.59 0.390001 145.42 0.420001 147.25 0.380001C148.05 0.360001 148.38 0.610001 148.37 1.46C148.35 8.75 148.4 16.05 148.34 23.34L148.38 23.35Z" fill="white"/>
<path d="M72.73 23.27C72.6 30.76 66.99 34.41 60.28 33.88C57.4 33.65 54.84 32.68 52.86 30.48C51.04 28.47 50.26 26.07 50.26 23.38C50.26 19.87 50.26 16.36 50.26 12.85C50.26 9.07 50.28 5.29 50.24 1.5C50.23 0.609999 50.55 0.359999 51.39 0.379999C53.25 0.429999 55.11 0.429999 56.97 0.379999C57.85 0.359999 58.1 0.679999 58.09 1.53C58.06 8.64 58.07 15.76 58.09 22.87C58.09 23.46 58.14 24.07 58.29 24.65C58.69 26.25 59.96 27.18 61.59 27.15C63.15 27.12 64.37 26.13 64.72 24.55C64.83 24.06 64.86 23.54 64.86 23.03C64.86 15.92 64.86 8.8 64.86 1.69C64.86 0.399999 64.87 0.389999 66.17 0.389999C68.03 0.389999 69.89 0.409999 71.75 0.389999C72.47 0.389999 72.78 0.649999 72.77 1.39C72.76 8.68 72.86 15.98 72.73 23.27Z" fill="white"/>
</g>
<defs>
<clipPath id="clip0_163_3966">
<rect width="173.93" height="33.93" fill="white"/>
</clipPath>
</defs>
</svg>
