<svg width="20" height="23" viewBox="0 0 20 23" fill="none" xmlns="http://www.w3.org/2000/svg">
<path d="M14.0734 1C14.1811 1.64353 14.5165 3.44244 15.2995 4.34846C15.6125 4.69063 15.9651 4.9935 16.3496 5.25054C16.4818 5.33759 16.6183 5.4179 16.7584 5.49115C17.6705 5.95094 18.5613 6.09093 19 6.04281V9.62313C19 9.62313 17.7479 9.57064 16.8186 9.32127C15.5232 8.97085 14.693 8.43275 14.693 8.43275C14.693 8.43275 14.1167 8.04734 14.0734 8.02109V15.4197C14.0734 15.8309 13.9657 16.8599 13.6429 17.7178C13.3601 18.4514 12.9557 19.1309 12.4471 19.7271C12.4471 19.7271 11.651 20.725 10.2527 21.3948C8.99195 21.999 7.88177 21.9854 7.55036 21.999C7.55036 21.999 5.63589 22.0768 3.90918 20.8904L3.90053 20.8816V20.8904C3.31675 20.4785 2.79617 19.9819 2.35554 19.4165C1.8091 18.7117 1.4738 17.8757 1.38727 17.6307V17.622C1.24969 17.2059 0.96111 16.1993 1.00437 15.2277C1.07317 13.5158 1.64124 12.4611 1.7918 12.1986C2.18745 11.4788 2.70428 10.8343 3.31905 10.2942C4.02065 9.69951 4.83653 9.25827 5.71522 8.99834C6.59391 8.73842 7.51634 8.66545 8.42431 8.78405L8.41999 12.4562C8.12089 12.3577 7.80826 12.3076 7.49369 12.3079C5.83188 12.3079 4.48504 13.6781 4.48504 15.3703C4.48504 17.0624 5.83188 18.4326 7.49369 18.4326C8.01109 18.4333 8.51973 18.2976 8.96945 18.0389C9.40096 17.791 9.7656 17.4397 10.0313 17.0159C10.297 16.592 10.4556 16.1086 10.4932 15.6083C10.4932 15.6056 10.4932 15.603 10.4932 15.6004C10.4954 15.5899 10.4954 15.5794 10.4954 15.5693C10.4967 15.5448 10.4989 15.5238 10.4989 15.5011C10.5067 15.3182 10.5067 15.1332 10.5067 14.9459V1H14.0734ZM14.0734 1L14.1206 1.87977C14.0306 1.34561 14.0678 1 14.0734 1Z" stroke="black" stroke-width="1.7"/>
</svg>
