<svg width="28" height="28" viewBox="0 0 28 28" fill="none" xmlns="http://www.w3.org/2000/svg">
<path d="M14.1793 0.000282255C6.3053 -0.04836 0 6.19608 0 14.0396C0 21.7798 6.21409 27.9817 13.9969 28C21.6885 28.0182 27.9695 21.8163 27.9999 14.1612C28.0303 6.37241 21.8648 0.0489245 14.1793 0.000282255ZM15.1278 4.02543C14.4286 9.05382 9.44882 11.7535 5.02843 9.57672C5.6547 6.91964 10.3487 3.09514 15.1278 4.02543ZM14.5563 24.1937C7.84362 24.4977 3.47186 18.7032 3.92181 13.6627C8.10507 14.7693 11.8445 14.1491 15.1826 11.1454C15.2312 11.5528 15.292 11.8325 15.2981 12.1122C15.2981 15.7604 15.2981 19.4085 15.2981 23.0567C15.2981 23.5978 15.4075 24.1572 14.5502 24.1937H14.5563ZM19.1834 22.7831V5.27796C22.3756 7.3027 24.0538 10.0996 24.1632 13.6809C24.2848 17.5297 22.5884 20.5273 19.1834 22.7831Z" fill="white"/>
</svg>
