<svg width="226" height="33" viewBox="0 0 226 33" fill="none" xmlns="http://www.w3.org/2000/svg">
<g clip-path="url(#clip0_163_3943)">
<path d="M16.15 0.289927C7.19 0.229927 0 7.34993 0 16.2899C0 25.1099 7.08 32.1699 15.95 32.1999C24.72 32.2199 31.87 25.1499 31.9 16.4299C31.94 7.54993 24.91 0.349927 16.15 0.289927ZM17.23 4.86993C16.44 10.5999 10.76 13.6799 5.72 11.1899C6.44 8.15993 11.78 3.80993 17.23 4.86993ZM16.59 27.8599C8.94 28.2099 3.96 21.6099 4.48 15.8599C9.24 17.1199 13.51 16.4099 17.31 12.9899C17.37 13.4499 17.44 13.7699 17.44 14.0899C17.44 18.2499 17.44 22.3999 17.44 26.5599C17.44 27.1699 17.56 27.8199 16.59 27.8599ZM21.86 26.2499V6.29993C25.5 8.59993 27.41 11.7899 27.53 15.8699C27.67 20.2499 25.74 23.6699 21.86 26.2399V26.2499Z" fill="white"/>
<path d="M161.27 4.1797e-05C152.06 -0.0199582 144.77 7.14004 144.79 16.2C144.81 25.2 152.07 32.35 161.2 32.36C170.3 32.37 177.59 25.2 177.61 16.2C177.63 7.20004 170.4 0.0200418 161.27 4.1797e-05ZM161.19 28.03C154.65 28 149.51 22.75 149.53 16.12C149.55 9.59004 154.74 4.31004 161.17 4.29004C167.68 4.26004 172.87 9.53004 172.88 16.16C172.88 22.81 167.73 28.06 161.2 28.03H161.19Z" fill="white"/>
<path d="M69.13 0.620059V31.7401H64.61V29.1101C64.31 29.2601 64.15 29.3001 64.04 29.4001C60.17 32.6801 55.81 33.2001 51.27 31.2501C46.7 29.2801 44.58 25.4101 44.47 20.5901C44.32 14.0901 44.43 7.59006 44.44 1.08006C44.44 0.960059 44.49 0.830059 44.55 0.560059H49.15V2.01006C49.15 7.76006 49.13 13.5101 49.17 19.2601C49.17 20.4001 49.28 21.5701 49.59 22.6601C50.65 26.3601 54.01 28.5501 57.66 28.0501C61.75 27.5001 64.45 24.4501 64.5 20.0801C64.57 14.1101 64.52 8.14006 64.53 2.17006V0.620059H69.14H69.13Z" fill="white"/>
<path d="M94.62 12.8901C92.8 10.6401 90.44 9.26009 87.59 8.71009C83.73 7.97009 80.37 9.05009 77.2 11.8101V0.590088H72.8V31.6701H77.11C77.15 30.8301 77.19 30.0901 77.23 29.2101C84.06 33.5101 89.98 33.1401 94.31 28.2701C98.12 23.9701 98.26 17.4101 94.61 12.9001L94.62 12.8901ZM85.01 28.3201C80.69 28.3201 77.21 24.8401 77.18 20.4801C77.15 16.1201 80.58 12.5901 84.91 12.5301C89.26 12.4701 92.83 16.0201 92.83 20.4301C92.83 24.7401 89.29 28.3201 85.01 28.3201Z" fill="white"/>
<path d="M113.53 8.8301C107.51 7.5001 101.71 10.7501 99.71 16.5601C97.77 22.2201 100.32 28.4601 105.64 31.0401C111.02 33.6501 118.01 32.0001 120.97 27.3401C119.96 26.5901 118.95 25.8401 117.96 25.1001C114.25 28.4101 111.28 29.1801 108.08 27.6501C105.71 26.5201 104.26 24.6701 103.74 21.8901H122.12C122.8 15.4801 119.18 10.0801 113.53 8.8301ZM103.94 18.2101C104.32 15.1101 107.21 12.5801 110.43 12.4901C114 12.3901 116.92 14.7201 117.5 18.2101H103.93H103.94Z" fill="white"/>
<path d="M216.97 8.86011C211.18 7.49011 205.4 10.6101 203.33 16.2101C201.23 21.8901 203.54 28.1101 208.77 30.8701C214.16 33.7201 221 32.2101 224.36 27.3701C223.31 26.5901 222.27 25.8201 221.2 25.0301C218.65 28.0101 215.61 29.1301 211.98 27.8301C209.3 26.8701 207.73 24.8501 207.13 21.8601H225.46C226.13 15.5201 222.57 10.1801 216.96 8.85011L216.97 8.86011ZM207.49 18.2601C207.39 15.5701 210.47 12.7201 213.69 12.5201C217.19 12.2901 220.49 14.9101 220.85 18.2601H207.49Z" fill="white"/>
<path d="M200.21 19.87C200.21 23.8 200.21 27.73 200.21 31.74H195.75C195.73 31.29 195.69 30.82 195.69 30.36C195.69 26.29 195.72 22.22 195.67 18.15C195.63 14.33 192.91 12.09 189.17 12.74C186.59 13.18 184.84 15.29 184.82 18.13C184.78 22.16 184.81 26.18 184.81 30.21V31.74H180.36V9.1H184.78V10.93C186.39 10.19 187.93 9.17 189.61 8.77C194.81 7.52 199.45 10.85 200.12 16.15C200.27 17.37 200.2 18.62 200.2 19.86L200.21 19.87Z" fill="white"/>
<path d="M136.13 8.88003V13.03C135.68 13.03 135.21 13.03 134.74 13.03C131.46 13.05 129.39 14.94 129.3 18.24C129.2 22.17 129.26 26.11 129.25 30.05C129.25 30.57 129.25 31.1 129.25 31.77H124.84V9.07003H129.11C129.15 9.82003 129.19 10.51 129.25 11.54C131.13 9.16003 133.42 8.52003 136.14 8.87003L136.13 8.88003Z" fill="white"/>
</g>
<defs>
<clipPath id="clip0_163_3943">
<rect width="225.55" height="32.39" fill="white"/>
</clipPath>
</defs>
</svg>
