<svg width="29" height="28" viewBox="0 0 29 28" fill="none" xmlns="http://www.w3.org/2000/svg">
<path d="M11.26 1.635C12.78 -0.545 16.01 -0.545 17.53 1.635L18.14 2.515C18.52 3.065 19.19 3.335 19.84 3.225L20.9 3.03499C23.52 2.57499 25.8 4.855 25.34 7.475L25.15 8.53499C25.03 9.19499 25.31 9.85501 25.86 10.235L26.74 10.845C28.92 12.365 28.92 15.595 26.74 17.115L25.86 17.725C25.31 18.105 25.04 18.775 25.15 19.425L25.34 20.485C25.8 23.105 23.52 25.385 20.9 24.925L19.84 24.735C19.18 24.615 18.52 24.895 18.14 25.445L17.52 26.325C16 28.505 12.77 28.505 11.25 26.325L10.64 25.445C10.26 24.895 9.59 24.625 8.94 24.735L7.88 24.925C5.26 25.385 2.98 23.105 3.44 20.485L3.63 19.425C3.74999 18.765 3.47 18.105 2.92 17.725L2.04 17.105C-0.140001 15.585 -0.140001 12.355 2.04 10.835L2.92 10.225C3.47 9.845 3.74 9.175 3.63 8.525L3.44 7.465C2.98 4.845 5.26 2.565 7.88 3.025L8.94 3.215C9.6 3.335 10.26 3.055 10.64 2.505L11.25 1.62501L11.26 1.635ZM15.8 2.84499C15.12 1.86499 13.67 1.86499 12.99 2.84499L12.38 3.725C11.53 4.945 10.04 5.555 8.58 5.295L7.51999 5.105C6.34999 4.895 5.32 5.91499 5.53 7.09499L5.72 8.155C5.98 9.625 5.36 11.105 4.15 11.955L3.26999 12.565C2.28999 13.245 2.28999 14.695 3.26999 15.375L4.15 15.995C5.37 16.845 5.98 18.335 5.72 19.795L5.53 20.855C5.32 22.025 6.33999 23.055 7.51999 22.845L8.58 22.655C10.05 22.395 11.53 23.015 12.38 24.225L12.99 25.105C13.67 26.085 15.12 26.085 15.8 25.105L16.42 24.225C17.27 23.005 18.76 22.395 20.22 22.655L21.28 22.845C22.45 23.055 23.48 22.025 23.27 20.855L23.08 19.795C22.82 18.325 23.44 16.845 24.65 15.995L25.53 15.385C26.51 14.705 26.51 13.255 25.53 12.575L24.65 11.965C23.43 11.115 22.82 9.625 23.08 8.165L23.27 7.105C23.48 5.935 22.45 4.905 21.28 5.115L20.22 5.305C18.75 5.565 17.27 4.94501 16.42 3.73501L15.81 2.855L15.8 2.84499ZM10.5 9.685C9.99 9.685 9.58 10.095 9.58 10.605C9.58 11.115 9.99 11.525 10.5 11.525C11.01 11.525 11.42 11.115 11.42 10.605C11.42 10.095 11.01 9.685 10.5 9.685ZM7.47 10.615C7.47 8.935 8.83 7.575 10.51 7.575C12.19 7.575 13.55 8.935 13.55 10.615C13.55 12.295 12.19 13.655 10.51 13.655C8.83 13.655 7.47 12.295 7.47 10.615ZM20.56 8.01501C20.97 8.425 20.97 9.095 20.56 9.505L10.06 20.005C9.64 20.415 8.97 20.395 8.57 19.975C8.17 19.565 8.17 18.915 8.57 18.505L19.07 8.005C19.48 7.595 20.15 7.595 20.56 8.005V8.01501ZM18.42 17.605C17.91 17.605 17.5 18.015 17.5 18.525C17.5 19.035 17.91 19.445 18.42 19.445C18.93 19.445 19.34 19.035 19.34 18.525C19.34 18.015 18.93 17.605 18.42 17.605ZM15.39 18.535C15.39 16.855 16.75 15.495 18.43 15.495C20.11 15.495 21.47 16.855 21.47 18.535C21.47 20.215 20.11 21.575 18.43 21.575C16.75 21.575 15.39 20.215 15.39 18.535Z" fill="#FF8500"/>
</svg>
